<svg xmlns="http://www.w3.org/2000/svg" fill="red" height="20" viewBox="0 -960 960 960" width="20"><path d="M235.774-216.155q-45.678 0-77.688-32.17-32.009-32.169-32.009-77.714h-56.46v-378.48q0-25.079 17.463-42.645 17.463-17.565 42.805-17.565H659.23v133.076h102.115l129.231 181.078v124.536h-61.884q0 45.545-32.196 77.714-32.196 32.17-77.875 32.17-45.678 0-77.688-32.17-32.009-32.169-32.009-77.714H345.845q0 45.923-32.196 77.903-32.196 31.981-77.875 31.981Zm.091-47.96q25.804 0 43.912-18.012t18.108-43.912q0-25.9-18.094-43.912-18.093-18.012-43.83-18.012-25.9 0-43.912 18.012t-18.012 43.912q0 25.9 18.012 43.912t43.816 18.012ZM117.576-373.999h20.116q11.961-27.847 39.076-44.482 27.116-16.635 59.193-16.635 31.308 0 58.712 16.347 27.404 16.346 39.087 44.77h277.51v-342.77H129.885q-4.808 0-8.558 3.846-3.751 3.847-3.751 8.462v330.462Zm601.136 109.884q25.804 0 43.912-18.012t18.108-43.912q0-25.9-18.094-43.912-18.093-18.012-43.83-18.012-25.901 0-43.912 18.012-18.012 18.012-18.012 43.912t18.012 43.912q18.011 18.012 43.816 18.012ZM659.23-444.384l176.424-1-100.155-138.309H659.23v139.309Zm-292.807-98Z"/></svg>
