<?xml version="1.0" encoding="UTF-8"?>
<svg xmlns="http://www.w3.org/2000/svg" xmlns:xlink="http://www.w3.org/1999/xlink" width="2500" height="2500" viewBox="0 0 2500 2500">
<path fill-rule="evenodd" fill="rgb(0%, 0%, 0%)" fill-opacity="1" d="M 889.082031 755.671875 L 922.367188 666.101562 C 939.476562 620.070312 986.0625 589.191406 1038.398438 589.191406 C 1151.988281 589.191406 1349.191406 589.191406 1463.230469 589.191406 C 1516.019531 589.191406 1562.898438 620.589844 1579.660156 667.179688 L 1611.488281 755.671875 L 1941.519531 755.671875 C 1981.300781 755.671875 2019.460938 770.378906 2047.589844 796.558594 C 2075.71875 822.738281 2091.519531 858.238281 2091.519531 895.269531 C 2091.519531 1117.449219 2091.519531 1549.035156 2091.519531 1771.214844 C 2091.519531 1808.238281 2075.71875 1843.746094 2047.589844 1869.925781 C 2019.460938 1896.105469 1981.300781 1910.8125 1941.519531 1910.8125 C 1622.101562 1910.8125 877.894531 1910.8125 558.480469 1910.8125 C 518.695312 1910.8125 480.542969 1896.105469 452.414062 1869.925781 C 424.28125 1843.746094 408.480469 1808.238281 408.480469 1771.214844 C 408.480469 1549.035156 408.480469 1117.449219 408.480469 895.269531 C 408.480469 858.238281 424.28125 822.738281 452.414062 796.558594 C 480.542969 770.378906 518.695312 755.671875 558.480469 755.671875 L 889.082031 755.671875 "/>
<path fill-rule="evenodd" fill="rgb(100%, 100%, 100%)" fill-opacity="1" d="M 1250 859.710938 C 1512.160156 859.710938 1725 1072.550781 1725 1334.710938 C 1725 1596.871094 1512.160156 1809.710938 1250 1809.710938 C 987.839844 1809.710938 775 1596.871094 775 1334.710938 C 775 1072.550781 987.839844 859.710938 1250 859.710938 Z M 1250 991.851562 C 1439.230469 991.851562 1592.859375 1145.480469 1592.859375 1334.710938 C 1592.859375 1523.941406 1439.230469 1677.570312 1250 1677.570312 C 1060.769531 1677.570312 907.140625 1523.941406 907.140625 1334.710938 C 907.140625 1145.480469 1060.769531 991.851562 1250 991.851562 "/>
<path fill-rule="evenodd" fill="rgb(100%, 100%, 100%)" fill-opacity="1" d="M 1175.589844 1063.738281 C 1173.78125 1056.078125 1168.808594 1049.558594 1161.910156 1045.78125 C 1155.011719 1042 1146.828125 1041.328125 1139.398438 1043.941406 C 1075.691406 1066.429688 1021.339844 1110.859375 985.855469 1170.210938 C 950.230469 1229.800781 936.15625 1300.179688 945.460938 1369.300781 C 946.527344 1377.128906 950.855469 1384.148438 957.375 1388.621094 C 963.890625 1393.089844 971.996094 1394.609375 979.6875 1392.78125 C 979.691406 1392.789062 979.691406 1392.789062 979.691406 1392.789062 C 987.609375 1390.910156 992.683594 1383.179688 991.257812 1375.171875 C 980.035156 1312.75 991.503906 1248.351562 1023.78125 1194.371094 C 1055.75 1140.898438 1105.730469 1101.679688 1164.109375 1083.800781 C 1172.621094 1081.179688 1177.640625 1072.410156 1175.589844 1063.738281 "/>
<path fill-rule="evenodd" fill="rgb(100%, 100%, 100%)" fill-opacity="1" d="M 1955.25 880.789062 C 1955.25 869.148438 1945.808594 859.710938 1934.171875 859.710938 C 1905.421875 859.710938 1854.230469 859.710938 1825.480469 859.710938 C 1813.839844 859.710938 1804.398438 869.148438 1804.398438 880.789062 C 1804.398438 895.671875 1804.398438 915.511719 1804.398438 930.390625 C 1804.398438 942.03125 1813.839844 951.46875 1825.480469 951.46875 C 1854.230469 951.46875 1905.421875 951.46875 1934.171875 951.46875 C 1945.808594 951.46875 1955.25 942.03125 1955.25 930.390625 C 1955.25 915.511719 1955.25 895.671875 1955.25 880.789062 "/>
</svg>
