<?xml version="1.0" encoding="UTF-8"?>
<svg xmlns="http://www.w3.org/2000/svg" xmlns:xlink="http://www.w3.org/1999/xlink" width="2834.88" height="2834.88" viewBox="0 0 2834.88 2834.88">
<path fill-rule="evenodd" fill="rgb(0%, 0%, 0%)" fill-opacity="1" d="M 1148.28125 1849.984375 C 1180.160156 1877.171875 1183.960938 1925.125 1156.769531 1957.003906 C 1129.578125 1988.882812 1081.628906 1992.6875 1049.75 1965.496094 L 477.410156 1477.320312 C 460.503906 1462.898438 450.761719 1441.789062 450.761719 1419.570312 C 450.761719 1397.339844 460.503906 1376.230469 477.410156 1361.808594 L 1049.75 873.640625 C 1081.628906 846.449219 1129.578125 850.25 1156.769531 882.128906 C 1183.960938 914.011719 1180.160156 961.960938 1148.28125 989.148438 L 643.652344 1419.570312 Z M 1402.859375 1959.101562 C 1396.121094 2000.453125 1357.070312 2028.550781 1315.71875 2021.804688 C 1274.371094 2015.0625 1246.269531 1976.015625 1253.019531 1934.664062 L 1425.75 875.539062 C 1432.5 834.191406 1471.539062 806.101562 1512.898438 812.839844 C 1554.25 819.578125 1582.339844 858.628906 1575.601562 899.980469 Z M 1784.890625 1965.496094 C 1753.019531 1992.6875 1705.058594 1988.882812 1677.871094 1957.003906 C 1650.679688 1925.125 1654.488281 1877.171875 1686.371094 1849.984375 C 1686.371094 1849.984375 2039.488281 1548.789062 2190.988281 1419.570312 L 1686.371094 989.148438 C 1654.488281 961.960938 1650.679688 914.011719 1677.871094 882.128906 C 1705.058594 850.25 1753.019531 846.449219 1784.890625 873.640625 L 2357.230469 1361.808594 C 2374.140625 1376.230469 2383.878906 1397.339844 2383.878906 1419.570312 C 2383.878906 1441.789062 2374.140625 1462.898438 2357.230469 1477.320312 L 1784.890625 1965.496094 "/>
</svg>
